<svg width="77" height="38" viewBox="0 0 77 38" fill="none" xmlns="http://www.w3.org/2000/svg">
<path d="M5.64729 16.614C5.64729 21.7607 9.23147 24.62 12.6807 24.62C15.1747 24.62 17.7363 23.2735 19.2044 20.5173C19.2719 20.3477 19.4778 20.2812 19.6128 20.3843L22.7549 22.3692C22.8561 22.4357 22.927 22.6052 22.8561 22.705C20.7738 26.9108 16.8116 28.8957 12.8494 28.8957C6.94326 28.8957 1 24.5569 1 16.6173C1 8.67771 6.94326 4.33887 12.8494 4.33887C16.8116 4.33887 20.7704 6.32376 22.8561 10.5296C22.9236 10.6294 22.8561 10.7989 22.7549 10.8654L19.6128 12.8503C19.4778 12.9501 19.2719 12.8836 19.2044 12.7173C17.7363 9.95775 15.1747 8.61454 12.6807 8.61454C9.2011 8.60789 5.64729 11.5005 5.64729 16.614Z" fill="white"/>
<path d="M24.6685 23.1738C24.6685 28.3206 29.1774 30.1725 33.0687 27.7155L35.4581 26.2027C35.6978 26.0331 35.9036 26.1694 35.9036 26.4055V28.1211C35.9036 28.2541 36.0386 28.3904 36.177 28.3904H40.0683C40.2033 28.3904 40.3417 28.2574 40.3417 28.1211V11.8396C40.3417 11.7066 40.2067 11.5703 40.0683 11.5703H36.177C36.042 11.5703 35.9036 11.7033 35.9036 11.8396V20.9229C35.9036 23.8155 34.0609 25.1953 32.2823 25.1953C30.6421 25.1953 29.1065 24.3541 29.1065 21.7973V11.8396C29.1065 11.7066 28.9715 11.5703 28.8331 11.5703H24.9418C24.8068 11.5703 24.6685 11.7033 24.6685 11.8396V23.1738Z" fill="white"/>
<path d="M43.6894 28.3903H47.584C47.719 28.3903 47.8574 28.2573 47.8574 28.121V5.11013C47.8574 4.97714 47.7224 4.84082 47.584 4.84082H43.6894C43.5544 4.84082 43.416 4.97714 43.416 5.11013V28.121C43.416 28.254 43.5544 28.3903 43.6894 28.3903Z" fill="white"/>
<path d="M63.2912 14.0243V11.8366C63.2912 11.7036 63.4262 11.5673 63.5646 11.5673H67.4593C67.5942 11.5673 67.7326 11.7003 67.7326 11.8366V34.8474C67.7326 34.9804 67.5976 35.1167 67.4593 35.1167H63.5646C63.4296 35.1167 63.2912 34.9837 63.2912 34.8474V26.5055C63.2912 26.2362 62.9841 26.1365 62.7782 26.336C61.3776 27.9518 59.4303 28.7597 57.7597 28.7597C54.0034 28.7597 50.2471 25.8339 50.2471 20.0455C50.2471 14.932 53.73 11.1982 57.3142 11.1982C58.168 11.1982 59.2615 11.4675 60.2841 12.2755L62.8457 14.2271C63.0516 14.3601 63.2912 14.2604 63.2912 14.0243ZM54.8572 20.0122C54.8572 22.6355 56.7337 24.79 59.194 24.79C61.1751 24.79 63.2912 22.7053 63.2912 19.846C63.2912 16.6509 61.0705 15.0018 59.2278 15.0018C57.0408 15.0018 54.8572 16.6143 54.8572 20.0122Z" fill="white"/>
<path d="M72.7173 9.44932C74.2529 9.44932 75.4476 8.3056 75.4476 6.68975C75.4476 5.14373 74.2529 4 72.7173 4C71.1108 4 69.8823 5.14373 69.8823 6.68975C69.8823 8.23578 71.1108 9.44932 72.7173 9.44932ZM70.7362 28.3906H74.6309C74.7659 28.3906 74.9042 28.2576 74.9042 28.1213V11.8398C74.9042 11.7068 74.7692 11.5705 74.6309 11.5705H70.7362C70.6012 11.5705 70.4628 11.7035 70.4628 11.8398V28.1213C70.4628 28.2543 70.5978 28.3906 70.7362 28.3906Z" fill="white"/>
</svg>
