<svg width="325" height="331" viewBox="0 0 325 331" fill="none" xmlns="http://www.w3.org/2000/svg">
<path d="M243.622 4.48727C289.059 14.7221 323 55.3423 323 103.894C323 130.843 312.543 155.349 295.467 173.571C285.557 184.145 263.841 200.543 257.85 215.527C250.361 234.257 254.855 252.988 229.394 247.743C209.025 243.548 191.452 239.502 185.211 238.004C179.72 237.754 170.384 232.16 176.974 211.781C180.216 201.756 184.037 187.787 187.298 173.571C192.322 151.663 196.014 129.169 194.198 119.627C191.202 103.894 178.472 88.9092 165.741 91.9061C153.011 94.903 161.997 116.63 185.211 124.872C208.426 133.113 218.91 124.872 233.138 112.884C247.366 100.897 252.608 71.6772 233.138 68.6804C213.668 65.6835 216.663 94.903 224.9 109.887C233.138 124.872 246.617 139.107 263.841 145.101C281.064 151.094 286.306 133.113 281.064 124.872C278.069 120.376 269.232 114.083 257.85 124.872C243.622 138.358 233.138 154.84 215.914 201.292" stroke="#715091" stroke-width="4"/>
<path d="M215.914 201.292C233.138 154.84 243.622 138.358 257.85 124.872C269.233 114.083 278.069 120.376 281.064 124.872C286.306 133.113 281.064 151.094 263.841 145.101C246.617 139.107 233.138 124.872 224.901 109.887C216.663 94.903 213.668 65.6835 233.138 68.6804C252.608 71.6773 247.366 100.897 233.138 112.884C218.91 124.872 208.426 133.113 185.211 124.872C161.997 116.63 153.011 94.903 165.741 91.9061C178.472 88.9093 191.202 103.894 194.198 119.627C196.014 129.169 192.322 151.663 187.298 173.571" stroke="#EB6F25" stroke-width="4"/>
<path d="M243.622 4.48725C236.394 2.85921 228.875 2 221.156 2C164.909 2 119.312 47.6193 119.312 103.894C119.312 115.152 121.137 125.984 124.508 136.11C130.514 146.849 142.677 172.971 143.276 191.552C144.024 214.778 138.51 263.477 135.787 269.471C133.064 275.464 234.635 307.681 234.635 289.7C235.414 284.705 227.069 273.217 187.458 267.223C147.846 261.229 134.509 278.212 132.792 287.452C131.294 296.942 137.584 318.02 174.727 326.411C221.156 336.9 218.91 312.176 205.43 311.427C191.951 310.678 147.02 315.173 102.089 303.185C57.1577 291.198 21.2128 276.963 -6.49467 263.477C-34.2022 249.991 -127.06 217.025 -166 211.032" stroke="#F5A800" stroke-width="4"/>
<path d="M187.458 267.223C147.847 261.229 134.509 278.212 132.792 287.452C131.294 296.942 137.585 318.02 174.728 326.411C221.156 336.9 218.91 312.176 205.43 311.427C191.951 310.678 147.02 315.173 102.089 303.186C57.1579 291.198 21.213 276.963 -6.49449 263.477C-34.202 249.991 -127.06 217.025 -166 211.032" stroke="#00A19B" stroke-width="4"/>
</svg>
